# xmcd
#
# Track frame offsets:
#	150
#	12381
#	26482
#	38178
#	55305
#	70866
#	89018
#	101099
#	115052
#	126599
#	143575
#	158986
#
# Disc length: 2359 seconds
#
# Revision: 1
# Processed by: cddbd v1.5.2PL0 Copyright (c) Steve Scherf et al.
# Submitted via: audiograbber 1.83.01
#
DISCID=a709350c
DTITLE=Alan Jackson - CDG20338
DYEAR=2002
DGENRE=Country
TTITLE0=Chattahoochee (Vocals)
TTITLE1=Love's Got A Hold On You (Vocals)
TTITLE2=She's Got The Rhythm (Vocals)
TTITLE3=Mercury Blues (Vocals)
TTITLE4=Summertime Blues (Vocals)
TTITLE5=Livin' On Love (Vocals)
TTITLE6=Chattahoochee
TTITLE7=Love's Got A Hold On You
TTITLE8=She's Got The Rhythm
TTITLE9=Mercury Blues
TTITLE10=Summertime Blues
TTITLE11=Livin' On Love
EXTD=
EXTT0=
EXTT1=
EXTT2=
EXTT3=
EXTT4=
EXTT5=
EXTT6=
EXTT7=
EXTT8=
EXTT9=
EXTT10=
EXTT11=
PLAYORDER=
